<svg width="38" height="39" viewBox="0 0 38 39" fill="none" xmlns="http://www.w3.org/2000/svg">
<path d="M13.8087 31.2484C15.4574 31.2484 16.794 32.4503 16.794 33.933C16.794 35.4156 15.4574 36.6175 13.8087 36.6175C12.1599 36.6175 10.8234 35.4156 10.8234 33.933C10.8234 32.4503 12.1599 31.2484 13.8087 31.2484Z" stroke="#E5AC77" stroke-width="3"/>
<path d="M28.6689 31.2484C30.3177 31.2484 31.6543 32.4503 31.6543 33.933C31.6543 35.4156 30.3177 36.6175 28.6689 36.6175C27.0202 36.6175 25.6836 35.4156 25.6836 33.933C25.6836 32.4503 27.0202 31.2484 28.6689 31.2484Z" stroke="#E5AC77" stroke-width="3"/>
<path d="M8 17.3958C8 14.8269 8.00316 13.0352 8.20529 11.6834C8.40163 10.3701 8.76076 9.67473 9.31158 9.17942C9.86239 8.68411 10.6357 8.36116 12.0961 8.18461C13.5994 8.00285 15.5919 8 18.4487 8H24.2545C27.572 8 29.8998 8.0032 31.6299 8.22401C33.3186 8.43955 34.1623 8.8324 34.7195 9.42398C35.2768 10.0155 35.5691 10.8285 35.5279 12.3618C35.4858 13.9326 35.1064 15.9979 34.5611 18.9405C34.1577 21.1171 33.8751 22.6267 33.5005 23.7583C33.1379 24.8538 32.7373 25.4335 32.2071 25.8374C31.6767 26.2413 30.9751 26.5014 29.7137 26.6429C28.4109 26.7892 26.7087 26.7917 24.2545 26.7917H18.4487C15.5919 26.7917 13.5994 26.7888 12.0961 26.6071C10.6357 26.4305 9.86239 26.1076 9.31158 25.6123C8.76076 25.1169 8.40163 24.4216 8.20529 23.1083C8.00316 21.7564 8 19.9647 8 17.3958Z" stroke="#E5AC77" stroke-width="3"/>
<path d="M8.46822 17.2123V5.57936C8.46822 3.60253 6.68612 2 4.48778 2H2" stroke="#E5AC77" stroke-width="3" stroke-linecap="round"/>
</svg>
